<?xml version="1.0" encoding="utf-8"?>
<!-- Generator: Adobe Illustrator 18.1.1, SVG Export Plug-In . SVG Version: 6.00 Build 0)  -->
<svg version="1.1" id="Layer_1" xmlns="http://www.w3.org/2000/svg" xmlns:xlink="http://www.w3.org/1999/xlink" x="0px" y="0px"
	 viewBox="0 0 520.8 120" enable-background="new 0 0 520.8 120" xml:space="preserve">
<path fill="#64A5D0" d="M28.1,59.8c4.6,1.1,8.2,3.2,10.8,6.2c2.6,3.1,3.9,6.8,3.9,11c0,6.2-2.3,11.2-6.8,14.9s-10,5.6-16.4,5.6H0
	V28.7h19.1c6.6,0,11.8,1.5,15.6,4.4c3.7,2.9,5.6,7,5.6,12.3c0,3.3-1.1,6.2-3.2,8.7c-2.2,2.5-5.2,4.4-9,5.5V59.8z M8,56.1h9.4
	c9.8,0,14.7-3.5,14.7-10.5c0-3.2-1.2-5.6-3.6-7.3c-2.4-1.7-5.9-2.6-10.6-2.6H8V56.1z M8,90.6h9.1c5.3,0,9.5-1.2,12.6-3.6
	c3.1-2.4,4.7-5.7,4.7-9.9c0-4.5-1.5-7.9-4.6-10.4c-3.1-2.4-7.5-3.7-13.3-3.7H8V90.6z"/>
<path fill="#64A5D0" d="M95.8,97.6H75V35.3H61.7v-6.6h20.9V91h13.2V97.6z"/>
<path fill="#64A5D0" d="M139.8,45.5c7,0,12.6,2.4,16.7,7.3c4.1,4.9,6.2,11.3,6.2,19.3c0,8-2.1,14.5-6.2,19.4
	c-4.1,4.9-9.7,7.4-16.7,7.4c-7,0-12.6-2.4-16.7-7.3c-4.1-4.9-6.2-11.4-6.2-19.5c0-8,2.1-14.4,6.2-19.3
	C127.2,47.9,132.8,45.5,139.8,45.5z M139.8,92.3c4.6,0,8.3-2,10.9-5.9c2.7-3.9,4-8.6,4-14.2c0-5.9-1.3-10.7-4-14.5
	c-2.6-3.8-6.3-5.7-11-5.7c-4.7,0-8.4,1.9-11,5.6c-2.6,3.7-3.9,8.6-3.9,14.5c0,5.7,1.3,10.4,4,14.3S135.1,92.3,139.8,92.3z"/>
<path fill="#64A5D0" d="M219.3,95.9c-4.4,2-9.3,3-14.6,3c-8,0-14.4-2.4-19.2-7.3c-4.8-4.9-7.2-11.3-7.2-19.4
	c0-8.1,2.4-14.5,7.2-19.4c4.8-4.9,11.1-7.3,18.9-7.3c5.1,0,10,0.9,14.6,2.7l-2,6.3c-4.6-1.6-8.8-2.4-12.5-2.4
	c-5.6,0-10,1.8-13.3,5.4s-4.9,8.5-4.9,14.7c0,5.7,1.7,10.4,5.1,14.3c3.4,3.9,7.8,5.8,13.2,5.8c4.3,0,8.7-0.8,13.3-2.5L219.3,95.9z"
	/>
<g>
	<path fill="#D5D9D9" d="M246.5,114.8h-27.3v-9.2h16.6V9.2h-16.6V0h27.3V114.8z"/>
	<path fill="#D5D9D9" d="M290.8,120h-5.4c-6.6,0-11.3-1.8-14.2-5.3c-2.9-3.5-4.3-10.1-4.3-19.7v-6.6c0-8.5-1.1-14.5-3.4-17.8
		c-2.2-3.4-5.8-5-10.8-5V54.4c5,0,8.6-1.7,10.8-5c2.2-3.4,3.4-9.3,3.4-17.8v-6.6c0-9.5,1.4-16.1,4.3-19.6C274,1.8,278.8,0,285.3,0
		h5.4v9h-2.1c-4.2,0-7.2,0.9-8.9,2.7c-1.7,1.8-2.5,6.2-2.5,13.1v4.4c0,9.4-1.1,16.4-3.3,20.9c-2.2,4.5-5.9,7.8-11.2,9.9
		c5.2,2.2,9,5.5,11.2,10c2.2,4.5,3.3,11.4,3.3,20.9v4.4c0,6.9,0.8,11.3,2.5,13.1c1.7,1.8,4.6,2.7,8.9,2.7h2.1V120z"/>
	<path fill="#D5D9D9" d="M482.6,0l5.4,0c6.6,0,11.3,1.8,14.2,5.3c2.9,3.5,4.3,10.1,4.3,19.7v6.6c0,8.5,1.1,14.5,3.4,17.8
		c2.2,3.4,5.8,5,10.8,5v11.2c-5,0-8.6,1.7-10.8,5c-2.2,3.4-3.4,9.3-3.4,17.8v6.6c0,9.5-1.4,16.1-4.3,19.6c-2.9,3.5-7.6,5.3-14.2,5.3
		h-5.4v-9h2.1c4.2,0,7.2-0.9,8.9-2.7c1.7-1.8,2.5-6.2,2.5-13.1v-4.4c0-9.4,1.1-16.4,3.3-20.9c2.2-4.5,5.9-7.8,11.2-9.9
		c-5.2-2.2-9-5.5-11.2-10c-2.2-4.5-3.3-11.4-3.3-20.9v-4.4c0-6.9-0.8-11.3-2.5-13.1c-1.7-1.8-4.6-2.7-8.9-2.7h-2.1V0z"/>
</g>
<g>
	<path fill="#DD5A4E" d="M350.2,93.3c-5.4,3.7-11.7,5.6-18.8,5.6c-8.9,0-15.7-3.1-20.3-9.2c-4.6-6.1-7-15-7-26.6
		c0-11.2,2.2-20,6.7-26.3c4.5-6.3,11.3-9.5,20.6-9.5c3.3,0,6.6,0.4,9.9,1.3c3.3,0.8,5.9,2,7.9,3.4l-2.6,6.3
		c-4.6-2.6-9.6-3.9-15.1-3.9c-6.3,0-11.1,2.3-14.2,6.9c-3.1,4.6-4.6,11.9-4.6,21.9c0,19.1,6.3,28.7,18.8,28.7
		c5.3,0,10.7-1.6,16.3-4.9L350.2,93.3z"/>
	<path fill="#DD5A4E" d="M402.6,36.3c-4.1-1.4-8-2.1-11.7-2.1c-4.2,0-7.6,1-10.2,2.9c-2.6,1.9-3.9,4.6-3.9,8.1
		c0,4.2,3.4,7.8,10.3,11c5.1,2.3,8.4,4,10.1,4.9c1.6,0.9,3.3,2.2,5,3.8c1.7,1.6,3.1,3.5,4.1,5.6c1,2.2,1.5,4.6,1.5,7.3
		c0,6.7-2.3,11.9-6.8,15.6c-4.5,3.7-9.8,5.5-15.9,5.5c-5.9,0-11.1-1.2-15.6-3.5l1.7-6.9c5.2,2.4,9.8,3.6,13.7,3.6
		c4.6,0,8.2-1.2,11-3.5c2.8-2.4,4.1-5.6,4.1-9.7c0-3.1-0.9-5.7-2.7-7.8c-1.8-2.1-5.1-4.3-9.9-6.5c-4.9-2.3-8.1-3.8-9.6-4.7
		c-1.4-0.8-2.9-2-4.3-3.4c-1.4-1.5-2.5-3.1-3.3-4.9c-0.8-1.8-1.2-3.8-1.2-6c0-5.7,2.1-10.1,6.2-13.3c4.1-3.2,9.3-4.8,15.6-4.8
		c4.6,0,9.1,0.7,13.7,2.1L402.6,36.3z"/>
	<path fill="#DD5A4E" d="M462.6,36.3c-4.1-1.4-8-2.1-11.7-2.1c-4.2,0-7.6,1-10.2,2.9c-2.6,1.9-3.9,4.6-3.9,8.1
		c0,4.2,3.4,7.8,10.3,11c5.1,2.3,8.4,4,10.1,4.9c1.6,0.9,3.3,2.2,5,3.8c1.7,1.6,3.1,3.5,4.1,5.6c1,2.2,1.5,4.6,1.5,7.3
		c0,6.7-2.3,11.9-6.8,15.6c-4.5,3.7-9.8,5.5-15.9,5.5c-5.9,0-11.1-1.2-15.6-3.5l1.7-6.9c5.2,2.4,9.8,3.6,13.7,3.6
		c4.6,0,8.2-1.2,11-3.5c2.8-2.4,4.1-5.6,4.1-9.7c0-3.1-0.9-5.7-2.7-7.8c-1.8-2.1-5.1-4.3-9.9-6.5c-4.9-2.3-8.1-3.8-9.6-4.7
		c-1.4-0.8-2.9-2-4.3-3.4c-1.4-1.5-2.5-3.1-3.3-4.9c-0.8-1.8-1.2-3.8-1.2-6c0-5.7,2.1-10.1,6.2-13.3c4.1-3.2,9.3-4.8,15.6-4.8
		c4.6,0,9.1,0.7,13.7,2.1L462.6,36.3z"/>
</g>
</svg>
